<?xml version="1.0" encoding="iso-8859-1"?>
<!DOCTYPE svg PUBLIC "-//W3C//DTD SVG 1.1//EN" "http://www.w3.org/Graphics/SVG/1.1/DTD/svg11.dtd">
<svg 
 version="1.1" xmlns="http://www.w3.org/2000/svg" xmlns:xlink="http://www.w3.org/1999/xlink" x="0px" y="0px" width="512px"
	 height="512px" viewBox="0 0 512 512" style="enable-background:new 0 0 512 512;" xml:space="preserve"
><g id="afcae5a789ccd549f9c6e2a2f8071715"><g></g><path style="display: inline; fill: #010101;" d="M1.508,0h199.957l-73.562,73.562l70.563,70.561l-45.372,45.381l-70.566-70.566
		l-81.02,81.02V0z M311.241,0l77.944,77.944l-66.181,66.178l45.372,45.381l66.184-66.184l76.637,76.637V0H311.241z M368.377,314.033
		l-45.372,45.381l69.912,69.91L311.241,511h199.956V311.043l-72.905,72.905L368.377,314.033z M198.466,359.414l-45.372-45.381
		l-74.298,74.298L1.508,311.043V511h199.957l-77.293-77.294L198.466,359.414z"></path></g></svg>